<svg width="62" height="62" viewBox="0 0 62 62" fill="none" xmlns="http://www.w3.org/2000/svg">
<g clip-path="url(#clip0_20_526)">
<path d="M28.6992 0.0847664C26.6406 0.41172 25.1512 0.859768 23.5527 1.65899C18.9512 3.95977 15.8754 8.23438 14.8824 13.7563C14.4949 15.9117 14.4828 19.2781 14.8703 21.1914C15.4516 24.025 17.0137 28.0816 18.7695 31.2785L19.593 32.7559L15.8148 32.8164C11.9762 32.877 11.7945 32.9012 11.3586 33.3855C11.2496 33.5066 8.64609 39.4645 5.58242 46.6211C0.678125 58.0523 0 59.6992 0 60.2441C0 60.9223 0.254297 61.4066 0.799219 61.7699C1.13828 61.9879 1.96172 62 31 62C60.0383 62 60.8617 61.9879 61.2008 61.7699C61.7457 61.4066 62 60.9223 62 60.2199C62 59.6629 61.3945 58.1855 56.4781 46.718C53.4508 39.634 50.8836 33.7246 50.7867 33.5793C50.3508 32.9012 50.266 32.877 46.1852 32.8164L42.407 32.7559L43.2426 31.2422C45.0105 28.0211 46.5727 23.9766 47.1055 21.252C48.05 16.3719 47.0328 10.9227 44.4293 6.96289C43.618 5.73985 41.5109 3.6086 40.3 2.80938C38.3141 1.47734 36.0738 0.581253 33.7973 0.193752C32.7437 0.0121117 29.559 -0.0605431 28.6992 0.0847664ZM34.0273 4.09297C37.648 5.07383 40.3848 7.2293 42.0074 10.4141C43.3395 13.0055 43.9691 16.5293 43.6059 19.3145C43.0488 23.6012 40.5664 29.0141 36.1465 35.6016C34.9234 37.4301 32.1383 41.2203 31.3148 42.2012L31 42.5645L30.6852 42.2012C30.5156 41.9953 29.6801 40.9055 28.8324 39.7793C23.7102 32.9859 20.1379 26.5074 18.8906 21.7727C18.3578 19.7504 18.2004 18.1398 18.382 16.2508C18.7453 12.1578 20.0047 9.37266 22.5598 6.93867C24.2672 5.31602 26.3137 4.35938 29.1836 3.82656C29.3531 3.80235 30.3098 3.79024 31.3027 3.81445C32.659 3.83867 33.3492 3.91133 34.0273 4.09297ZM22.8746 37.9871C23.3953 38.7742 24.0492 39.7309 24.3277 40.1063L24.8363 40.7965L24.5578 40.966C24.4004 41.0629 21.143 42.734 17.3164 44.6836C13.4898 46.6332 9.95391 48.4375 9.48164 48.7039L8.59766 49.1762L8.93672 48.4012C9.11836 47.9773 10.3293 45.1438 11.625 42.1043L13.9863 36.5703H17.9461H21.918L22.8746 37.9871ZM50.6535 42.7582C52.1066 46.1609 53.257 48.9945 53.1965 49.0551C53.1359 49.1156 49.1641 51.1984 44.3566 53.7051L35.6137 58.2461H33.7004H31.7871L26.2773 52.7363C21.9059 48.3648 20.8039 47.2023 20.9492 47.1055C21.0461 47.0449 22.4871 46.2941 24.1461 45.4586L27.1613 43.9207L27.4035 44.2113C28.7234 45.8582 29.7164 47.0086 29.9707 47.1781C30.4187 47.4688 31.2301 47.5293 31.7508 47.3113C32.4773 47.0086 35.977 42.625 38.8105 38.4715L40.0941 36.5703H44.0539H48.0137L50.6535 42.7582ZM21.7363 53.6445L26.3379 58.2461H15.5363H4.72266L4.83164 57.9797C5.27969 56.8414 6.22422 54.7707 6.34531 54.6375C6.47852 54.5043 16.8441 49.1156 17.0742 49.0551C17.1105 49.0551 19.2055 51.1137 21.7363 53.6445ZM56.0785 55.4367L57.2652 58.1855L53.9352 58.2219C52.1066 58.234 49.1156 58.234 47.2871 58.2219L43.957 58.1855L49.3699 55.3762C52.3488 53.8262 54.807 52.591 54.8434 52.6273C54.8797 52.6516 55.4367 53.923 56.0785 55.4367Z" fill="#E06618"/>
<path d="M29.5596 11.0941C26.8471 11.8207 25.1155 14.4969 25.5514 17.2578C25.8541 19.1227 26.9561 20.5879 28.6635 21.4113C29.5838 21.8473 29.6444 21.8594 31.0006 21.8594C32.3569 21.8594 32.4174 21.8473 33.3377 21.4113C35.0451 20.5879 36.1713 19.0863 36.4498 17.2457C37.0432 13.3223 33.3983 10.0648 29.5596 11.0941ZM31.6545 14.8238C32.2842 15.0902 32.7201 15.7441 32.7201 16.4223C32.7201 17.0641 32.478 17.4637 31.8483 17.8875C31.1096 18.3961 30.1408 18.1539 29.5112 17.2941C29.1479 16.8098 29.1963 15.9742 29.608 15.4293C30.153 14.7148 30.8795 14.4969 31.6545 14.8238Z" fill="#E06618"/>
</g>
<defs>
<clipPath id="clip0_20_526">
<rect width="62" height="62" fill="white"/>
</clipPath>
</defs>
</svg>
