<svg width="255" height="92" viewBox="0 0 255 92" fill="none" xmlns="http://www.w3.org/2000/svg">
<path d="M26.9121 13.333H35.1928V50.5962H26.9121V13.333Z" fill="#F37021"/>
<path d="M47.6143 13.333H55.895V50.5962H47.6143V13.333Z" fill="#F37021"/>
<path d="M68.3154 13.333H78.6663V50.5962H68.3154V13.333Z" fill="#F37021"/>
<path d="M91.0879 13.333H99.3686V50.5962H91.0879V13.333Z" fill="#F37021"/>
<path d="M111.789 13.333H122.14V50.5962H111.789V13.333Z" fill="#F37021"/>
<path d="M134.562 13.333H142.842V50.5962H134.562V13.333Z" fill="#F37021"/>
<path d="M155.263 13.333H163.543V50.5962H155.263V13.333Z" fill="#F37021"/>
<path d="M175.965 13.333H184.246V50.5962H175.965V13.333Z" fill="#F37021"/>
<path d="M196.667 13.333H204.948V50.5962H196.667V13.333Z" fill="#F37021"/>
<path d="M219.438 13.333H227.719V50.5962H219.438V13.333Z" fill="#F37021"/>
<rect x="2.07031" y="65.0876" width="250.491" height="10.3509" fill="#F37021"/>
<path fill-rule="evenodd" clip-rule="evenodd" d="M25.6568 50.5229H37.3052V10.3556H25.6568V50.5229ZM34.1284 47.08H28.8336V13.7985H34.1284V47.08Z" fill="black"/>
<path fill-rule="evenodd" clip-rule="evenodd" d="M46.8358 50.5229H58.4842V10.3556H46.8358V50.5229ZM55.3073 47.08H50.0126V13.7985H55.3073V47.08Z" fill="black"/>
<path fill-rule="evenodd" clip-rule="evenodd" d="M68.0147 10.3556V50.5229H79.6631V10.3556H68.0147ZM76.4863 13.7985V47.08H71.1916V13.7985H76.4863Z" fill="black"/>
<path fill-rule="evenodd" clip-rule="evenodd" d="M89.1937 50.5229H100.842V10.3556H89.1937V50.5229ZM97.6652 47.08H92.3705V13.7985H97.6652V47.08Z" fill="black"/>
<path fill-rule="evenodd" clip-rule="evenodd" d="M110.373 10.3556V50.5229H122.021V10.3556H110.373ZM118.844 13.7985V47.08H113.549V13.7985H118.844Z" fill="black"/>
<path fill-rule="evenodd" clip-rule="evenodd" d="M132.157 50.5229H143.805V10.3556H132.157V50.5229ZM140.628 47.08H135.334V13.7985H140.628V47.08Z" fill="black"/>
<path fill-rule="evenodd" clip-rule="evenodd" d="M153.336 50.5229H164.984V10.3556H153.336V50.5229ZM161.807 47.08H156.512V13.7985H161.807V47.08Z" fill="black"/>
<path fill-rule="evenodd" clip-rule="evenodd" d="M174.515 10.3556V50.5229H186.163V10.3556H174.515ZM182.986 13.7985V47.08H177.691V13.7985H182.986Z" fill="black"/>
<path fill-rule="evenodd" clip-rule="evenodd" d="M195.694 50.5229H207.342V10.3556H195.694V50.5229ZM204.165 47.08H198.87V13.7985H204.165V47.08Z" fill="black"/>
<path fill-rule="evenodd" clip-rule="evenodd" d="M216.873 10.3556V50.5229H228.521V10.3556H216.873ZM225.344 13.7985V47.08H220.049V13.7985H225.344Z" fill="black"/>
<path fill-rule="evenodd" clip-rule="evenodd" d="M13.7306 0.912231H240.901V63.8682H254.632V77.5087H0V63.8682H13.7306V0.912231ZM16.6351 63.8682H237.996V59.1465H16.6351V63.8682ZM16.6351 55.9987V4.06003H237.996V55.9987H16.6351ZM2.90454 67.016V74.3609H251.727V67.016H2.90454Z" fill="black"/>
<circle cx="19.6664" cy="80.6136" r="9.31579" fill="white" stroke="black" stroke-width="2.48421"/>
<ellipse cx="19.6663" cy="80.6116" rx="3.99248" ry="3.99248" fill="white" stroke="black" stroke-width="2.48421"/>
<circle cx="212.193" cy="80.6136" r="9.31579" fill="white" stroke="black" stroke-width="2.48421"/>
<ellipse cx="212.193" cy="80.6116" rx="3.99248" ry="3.99248" fill="white" stroke="black" stroke-width="2.48421"/>
<circle cx="42.4388" cy="80.6136" r="9.31579" fill="white" stroke="black" stroke-width="2.48421"/>
<ellipse cx="42.4388" cy="80.6116" rx="3.99248" ry="3.99248" fill="white" stroke="black" stroke-width="2.48421"/>
<circle cx="234.965" cy="80.6136" r="9.31579" fill="white" stroke="black" stroke-width="2.48421"/>
<ellipse cx="234.965" cy="80.6116" rx="3.99248" ry="3.99248" fill="white" stroke="black" stroke-width="2.48421"/>
</svg>
