<svg width="145" height="91" viewBox="0 0 145 91" fill="none" xmlns="http://www.w3.org/2000/svg">
<path d="M22.7715 12.333H31.0522V47.526H22.7715V12.333Z" fill="#F37021"/>
<path d="M45.5439 12.333H55.8948V47.526H45.5439V12.333Z" fill="#F37021"/>
<path d="M68.3154 12.333H76.5961V47.526H68.3154V12.333Z" fill="#F37021"/>
<path d="M89.0176 12.333H99.3685V47.526H89.0176V12.333Z" fill="#F37021"/>
<path d="M111.789 12.333H122.14V47.526H111.789V12.333Z" fill="#F37021"/>
<rect x="2.07031" y="64.0877" width="140.772" height="10.3509" fill="#F37021"/>
<path fill-rule="evenodd" clip-rule="evenodd" d="M33.3152 50.5197H20.8986V9.61644H33.3152V50.5197ZM24.2849 47.0137H29.9288V13.1224H24.2849V47.0137Z" fill="black"/>
<path fill-rule="evenodd" clip-rule="evenodd" d="M55.8908 50.5197H43.4742V9.61644H55.8908V50.5197ZM46.8605 47.0137H52.5045V13.1224H46.8605V47.0137Z" fill="black"/>
<path fill-rule="evenodd" clip-rule="evenodd" d="M66.0498 50.5197V9.61644H78.4664V50.5197H66.0498ZM75.0801 47.0137V13.1224H69.4362V47.0137H75.0801Z" fill="black"/>
<path fill-rule="evenodd" clip-rule="evenodd" d="M101.042 50.5197H88.6254V9.61644H101.042V50.5197ZM92.0118 47.0137H97.6557V13.1224H92.0118V47.0137Z" fill="black"/>
<path fill-rule="evenodd" clip-rule="evenodd" d="M111.201 50.5197V9.61644H123.618V50.5197H111.201ZM120.231 47.0137V13.1224H114.587V47.0137H120.231Z" fill="black"/>
<path fill-rule="evenodd" clip-rule="evenodd" d="M7.74021 0H137.26V64.1096H145V78H0V64.1096H7.74021V0ZM10.8363 64.1096H134.164V59.3014H10.8363V64.1096ZM10.8363 56.0959V3.20548H134.164V56.0959H10.8363ZM3.09609 67.3151V74.7945H141.904V67.3151H3.09609Z" fill="black"/>
<circle cx="19.6664" cy="79.6136" r="9.31579" fill="white" stroke="black" stroke-width="2.48421"/>
<ellipse cx="19.6663" cy="79.6116" rx="3.99248" ry="3.99248" fill="white" stroke="black" stroke-width="2.48421"/>
<circle cx="102.474" cy="79.6136" r="9.31579" fill="white" stroke="black" stroke-width="2.48421"/>
<ellipse cx="102.474" cy="79.6116" rx="3.99248" ry="3.99248" fill="white" stroke="black" stroke-width="2.48421"/>
<circle cx="42.4388" cy="79.6136" r="9.31579" fill="white" stroke="black" stroke-width="2.48421"/>
<ellipse cx="42.4388" cy="79.6116" rx="3.99248" ry="3.99248" fill="white" stroke="black" stroke-width="2.48421"/>
<circle cx="125.245" cy="79.6136" r="9.31579" fill="white" stroke="black" stroke-width="2.48421"/>
<ellipse cx="125.245" cy="79.6116" rx="3.99248" ry="3.99248" fill="white" stroke="black" stroke-width="2.48421"/>
</svg>
