<svg width="0" height="0" class="hidden">
  <symbol fill="none" xmlns="http://www.w3.org/2000/svg" viewBox="0 0 20 20" id="mobile-header-phone">
    <path d="M18.9 13.7556C17.5333 13.7556 16.2111 13.5333 14.9778 13.1333C14.5889 13 14.1556 13.1 13.8556 13.4L12.1111 15.5889C8.96667 14.0889 6.02222 11.2556 4.45556 8L6.62222 6.15556C6.92222 5.84444 7.01111 5.41111 6.88889 5.02222C6.47778 3.78889 6.26667 2.46667 6.26667 1.1C6.26667 0.5 5.76667 0 5.16667 0H1.32222C0.722222 0 0 0.266667 0 1.1C0 11.4222 8.58889 20 18.9 20C19.6889 20 20 19.3 20 18.6889V14.8556C20 14.2556 19.5 13.7556 18.9 13.7556Z" fill="currentColor"></path>
  </symbol>
  <symbol fill="none" xmlns="http://www.w3.org/2000/svg" viewBox="0 0 8 5" id="header-arrow">
    <path d="M4 4.5L7.4641 0.75H0.535898L4 4.5Z" fill="currentColor"></path>
  </symbol>
  <symbol fill="none" xmlns="http://www.w3.org/2000/svg" viewBox="0 0 4 8" id="header-subarrow">
    <path d="M4 4L0.25 0.535898L0.25 7.4641L4 4Z" fill="currentColor"></path>
  </symbol>  
    <symbol fill="none" xmlns="http://www.w3.org/2000/svg" viewBox="0 0 8 5" id="header-select-arrow">
    <path d="M4 4.5L7.4641 0.75H0.535898L4 4.5Z"></path>
  </symbol>
  <symbol fill="none" xmlns="http://www.w3.org/2000/svg" viewBox="0 0 18 10" id="arrow-container">
    <path d="M2.24062 0.09375L0.765625 1.56875L9.09895 9.90209L17.4323 1.56875L15.9573 0.09375L9.09895 6.95209L2.24062 0.09375Z" fill="currentColor"></path>
  </symbol>  
  <symbol fill="none" xmlns="http://www.w3.org/2000/svg" viewBox="0 0 25 17" id="arrow-slider">
    <path d="M16.25 0L14.4875 1.71214L20.2125 7.28571H0V9.71429H20.2125L14.475 15.2879L16.25 17L25 8.5L16.25 0Z" fill="#212121"></path>
  </symbol> 
  <symbol fill="none" xmlns="http://www.w3.org/2000/svg" viewBox="0 0 25 17" id="arrow-slider-white">
    <path d="M16.25 0L14.4875 1.71214L20.2125 7.28571H0V9.71429H20.2125L14.475 15.2879L16.25 17L25 8.5L16.25 0Z" fill="white"></path>
  </symbol>  
  <symbol fill="none" xmlns="http://www.w3.org/2000/svg" viewBox="0 0 15 15" id="modal-close">
    <path d="M14.4688 1.87875L13.0588 0.46875L7.46875 6.05875L1.87875 0.46875L0.46875 1.87875L6.05875 7.46875L0.46875 13.0588L1.87875 14.4688L7.46875 8.87875L13.0588 14.4688L14.4688 13.0588L8.87875 7.46875L14.4688 1.87875Z" fill="#212121"></path>
  </symbol>  
  <symbol fill="none" xmlns="http://www.w3.org/2000/svg" viewBox="0 0 10 6" id="modal-select">
    <path d="M5 6L9.33013 0.75H0.669873L5 6Z" fill="#111827"></path>
  </symbol>  
  <symbol fill="none" xmlns="http://www.w3.org/2000/svg" viewBox="0 0 10 8" id="modal-agree">
    <path fill-rule="evenodd" clip-rule="evenodd" d="M10 0.562275L3.41629 8L0 4.14057L0.497713 3.57829L3.41629 6.87545L9.50229 0L10 0.562275Z" fill="white"></path>
  </symbol>  
  <symbol fill="none" xmlns="http://www.w3.org/2000/svg" viewBox="0 0 31 32" id="modal-sign-error">
    <path d="M30.6693 3.88312L27.6143 0.828125L15.5026 12.9398L3.39094 0.828125L0.335938 3.88312L12.4476 15.9948L0.335938 28.1065L3.39094 31.1615L15.5026 19.0498L27.6143 31.1615L30.6693 28.1065L18.5576 15.9948L30.6693 3.88312Z" fill="#DC2626"></path>
  </symbol> 
  <symbol fill="none" xmlns="http://www.w3.org/2000/svg" viewBox="0 0 39 30" id="modal-svg-success">
    <path d="M12.5005 23.0995L3.40052 13.9995L0.367188 17.0328L12.5005 29.1661L38.5005 3.16615L35.4672 0.132812L12.5005 23.0995Z" fill="#6CFF6C"></path>
  </symbol>   
  <symbol fill="none" xmlns="http://www.w3.org/2000/svg" viewBox="0 0 12 20" id="button-arrow-prev">
    <path d="M11.9966 1.77L10.2266 0L0.226562 10L10.2266 20L11.9966 18.23L3.76656 10L11.9966 1.77Z" fill="currentColor"></path>
  </symbol> 
  <symbol fill="none" xmlns="http://www.w3.org/2000/svg" viewBox="0 0 12 21" id="button-arrow-next">
    <path d="M0.318268 18.4343L2.11869 20.1734L11.9438 10.0015L1.77193 0.176387L0.0328841 1.97681L8.40434 10.0629L0.318268 18.4343Z" fill="currentColor"></path>
  </symbol>  
</svg>
